<?xml version="1.0" encoding="UTF-8"?><svg id="Calque_1" xmlns="http://www.w3.org/2000/svg" viewBox="0 0 402.96 402.96"><defs><style>.cls-1,.cls-2{fill:#fff;}.cls-2{stroke:#000;stroke-miterlimit:10;stroke-width:2px;}</style></defs><circle class="cls-2" cx="201.48" cy="201.48" r="200.48"/><path class="cls-1" d="m263.53,201.09c-.09-34.41-27.95-61.83-62.8-61.83-32.87,0-61.31,28.51-61.3,61.44.02,35.74,27.8,63.23,63.68,63.02,33.24-.2,60.52-28.47,60.42-62.62h0ZM29.49,167.64c1.95.7,2.4.96,2.88,1.02,30.64,4.36,61.3,8.67,91.93,13.12,3.1.45,4.31-.75,5.65-3.34,4.1-7.95,8.2-15.96,13.08-23.44,2.53-3.87,2.88-6.19-.2-9.87-18.56-22.23-36.86-44.67-55.24-67.04-4.17-5.08-4.51-5.18-9.11-.51-16.28,16.54-29.57,35.2-38.17,56.82-4.27,10.73-7.2,21.98-10.81,33.24h0Zm291.26,164.14c2.05-1.86,3.55-3.14,4.96-4.52,23.46-23.12,38.88-50.84,47.15-82.63,1.79-6.88,1.68-7.34-5.29-8.39-29.28-4.43-58.59-8.66-87.87-13.08-3.18-.48-4.14.96-5.46,3.49-4.36,8.36-8.84,16.7-13.92,24.63-2.03,3.17-1.98,4.95.3,7.68,11.54,13.77,22.93,27.67,34.37,41.54,8.45,10.24,16.89,20.5,25.78,31.29h-.02Z"/><path d="m263.53,201.09c.09,34.15-27.19,62.43-60.42,62.62-35.88.21-63.66-27.28-63.68-63.02-.02-32.93,28.43-61.43,61.3-61.44,34.85,0,62.71,27.42,62.8,61.83h0Zm-61.79-24.27c-14.86.1-24.84,10.55-24.82,25.99.02,12.6,11.36,23.5,24.37,23.43,14.27-.08,25.01-10.8,24.97-24.94-.03-13.29-11.34-24.58-24.52-24.49h0Z"/><path d="m29.49,167.64c3.61-11.25,6.54-22.51,10.81-33.24,8.6-21.62,21.89-40.28,38.17-56.82,4.6-4.67,4.93-4.57,9.11.51,18.38,22.38,36.69,44.81,55.24,67.04,3.07,3.68,2.72,6,.2,9.87-4.88,7.47-8.98,15.48-13.08,23.44-1.34,2.59-2.55,3.79-5.65,3.34-30.63-4.44-61.28-8.75-91.93-13.12-.48-.07-.93-.32-2.88-1.02h.01Z"/><path d="m320.75,331.79c-8.89-10.8-17.33-21.05-25.78-31.29-11.43-13.86-22.82-27.76-34.37-41.54-2.28-2.72-2.33-4.5-.3-7.68,5.08-7.93,9.57-16.27,13.92-24.63,1.32-2.53,2.28-3.97,5.46-3.49,29.28,4.42,58.59,8.65,87.87,13.08,6.97,1.05,7.08,1.52,5.29,8.39-8.27,31.79-23.69,59.51-47.15,82.63-1.4,1.38-2.91,2.66-4.96,4.52h.02Z"/><path class="cls-1" d="m201.74,176.81c13.19-.09,24.49,11.2,24.52,24.49.04,14.13-10.71,24.86-24.97,24.94-13.01.07-24.36-10.84-24.37-23.43-.02-15.45,9.96-25.9,24.82-25.99h0Z"/></svg>