<?xml version="1.0" encoding="UTF-8" standalone="no"?>
<svg
   viewBox="0 0 827.5 1160"
   version="1.1"
   id="svg13"
   sodipodi:docname="pcgamingwiki.svg"
   width="827.5"
   height="1160"
   inkscape:version="1.4.3 (0d15f75042, 2025-12-25)"
   xmlns:inkscape="http://www.inkscape.org/namespaces/inkscape"
   xmlns:sodipodi="http://sodipodi.sourceforge.net/DTD/sodipodi-0.dtd"
   xmlns="http://www.w3.org/2000/svg"
   xmlns:svg="http://www.w3.org/2000/svg">
  <defs
     id="defs13" />
  <sodipodi:namedview
     id="namedview13"
     pagecolor="#ffffff"
     bordercolor="#000000"
     borderopacity="0.25"
     inkscape:showpageshadow="2"
     inkscape:pageopacity="0.0"
     inkscape:pagecheckerboard="0"
     inkscape:deskcolor="#d1d1d1"
     inkscape:zoom="0.71260243"
     inkscape:cx="959.16036"
     inkscape:cy="622.36667"
     inkscape:window-width="2560"
     inkscape:window-height="1376"
     inkscape:window-x="0"
     inkscape:window-y="0"
     inkscape:window-maximized="1"
     inkscape:current-layer="svg13" />
  <path
     d="M 0,167.3 448.9,0 827.4,57.2 v 1023.9 l 0.1,28.9 -375.4,50 L 0,1009.5 Z"
     fill="#365798"
     id="path1" />
  <path
     d="M 25.3,986.6 24.1,191.6 413,47.9 412,1108.7 Z m 452.8,123.1 0.2,-1056.3 309.8,42 v 975.8 z"
     fill="#a5b6d9"
     id="path2" />
  <path
     d="m 215.5,738.1 -174,-10 -1.2,-306.5 175.6,-16.4 z M 232.2,403.6 388.3,384.2 387.1,744 231.9,739.2 Z M 39.3,401 V 206.6 l 176,-57.4 1.2,232.1 z M 390.1,83.8 391,358.3 232.3,378.7 v -238 z m -253,909.7 V 758.4 l 141.7,9.3 v 268.4 z m 247,80.8 -17.3,-6.4 c 3.8,-22.5 -18.9,-31.9 -19.1,-5.7 l -18.7,-5.5 c -0.9,-22.1 -13.9,-31.7 -21.2,-6.8 l -9.7,-3 -0.6,-277.7 12.3,0.9 c -4.3,27.5 23.5,28.2 20.3,1.7 l 20.3,1.3 c -4.4,28.6 23.2,28.9 20.4,1.3 l 12.7,0.8 z M 42.8,752.2 l 82.2,5.9 -0.5,108 -81.9,-11.2 z M 125.9,881.5 125,991.9 42.3,971.7 V 869.3 Z M 494.3,71.1 772.9,107.7 v 950 l -278.3,35.1 z"
     fill="#365798"
     id="path3" />
  <path
     d="m 279,508.6 c -0.1,-5.1 0,-10 3.2,-14.2 6,0.2 4.9,9.7 5,14.3 10.3,5.1 4.9,-10.8 10.2,-15.3 7.6,-0.8 -0.6,16 6.9,15.8 4.9,-0.1 3.9,-2.4 3.8,-6.7 -0.1,-3.9 0.4,-7.8 3.8,-10.3 8.2,3.1 0.8,18.2 11.2,15.8 0,-6.4 -1,-14.2 5.8,-17.6 2.6,5.2 -0.1,14.8 5.4,16.1 7.4,1.7 8.4,3.6 10.2,10.5 0.8,3.1 -0.4,4.6 2.8,6.4 3.5,2 7.6,1.4 7.7,6.1 0.1,6.4 -2.7,5.5 -7.6,5.5 -1.8,0 -2.4,3.4 -2.5,4.7 -0.4,4.7 0.4,5.7 5,7 5.9,1.7 4.9,3.3 4.9,8.7 0,2.7 0.5,1.2 -3.1,1.9 -5.7,1.1 -7,0.3 -6.7,6.8 0.4,7.8 13.4,1.4 9.7,12.6 -1.6,4.8 -9.5,1.1 -9.5,5.3 0,5.3 -1.1,7.7 5.4,8.2 6.4,0.5 6,9.1 0.4,11 -3.4,1.2 -4.6,-0.1 -5.8,4 -1.2,4.1 -1.1,8.4 -2.6,12.5 -6.1,4.5 -11.6,-1.7 -11.6,8.4 0,2.7 -0.6,4.7 -1.1,7.3 -0.9,5 -2.2,0.7 -5.8,1.8 -1,-1.2 0,-7.9 0,-9.5 0,-4.7 -1.6,-5.8 -7,-5.4 -0.3,5.8 -0.2,12 -4.9,16.2 -2.9,-1.9 -4,-4.8 -4.2,-8.1 -0.3,-6.5 0.2,-6.7 -6.5,-8.3 -1.2,2.9 -2,11.4 -1.5,14.5 -5.2,2.6 -6,-5.4 -6,-8.6 0,-2.7 1.1,-5.7 -2.3,-6.7 -3.4,-0.9 -4.6,0.8 -4.7,3.9 -0.2,6.1 -0.5,8.8 -5.3,12.2 -1.9,-5.4 -0.3,-14.7 -6.6,-16.4 -7,-1.8 -7.9,-6.9 -8,-13.6 -0.1,-7.3 -8.9,-0.3 -8.9,-8.2 0,-0.8 -0.6,-4.9 0,-5.5 2.9,-2.1 5.8,1.2 8.5,0.1 1.3,-3.6 1.8,-9 -2.1,-9.9 -4,-0.9 -7.8,-1.4 -6.9,-6 1.1,-5.7 0.1,-5.4 6.3,-5.8 4.7,-0.3 3,-5.2 3.1,-8.4 -6.2,-2.9 -8.8,0.8 -8.8,-7.4 0,-5.6 -0.4,-5.1 5.2,-5.1 4.8,0 3.4,-1.7 3.4,-6.3 0,-5.1 -9.2,-0.6 -9.6,-7.6 -0.2,-3 1,-5.6 3.9,-6.7 5.1,-2 5.7,-2.3 5.9,-7.8 0.3,-8 5.6,-8.9 12,-12.1 v 0 0 z M 88.3,369.4 l 24.3,-92.2 -15.7,7.5 21.6,-79 25.5,-7.3 -19.1,53.1 19.2,-10.3 -55.7,128.3 v 0 z"
     fill="#a5b6d9"
     id="path4" />
  <path
     d="m 278.8,319 c 1.2,-3.2 2.5,-6.5 3.8,-9.9 13.8,5.9 26.4,10.2 40.6,1.9 13.7,-8 22.8,-24.3 28,-38.8 10.2,-28.4 10.2,-66.8 -8.3,-91.8 -22.5,-30.5 -54.5,-14.5 -69.8,13.9 -4.7,8.8 -11.2,31.3 -12.1,45.3 -0.5,6.9 -0.2,14.1 0.8,21.3 1,8.1 5.2,16.5 4.2,24.7 -0.3,2.5 -1.8,4.1 -4.6,4.6 -16.7,-28 -7.6,-72.9 4.9,-100.6 12.5,-27.6 47.9,-55.5 75.9,-29 25.7,24.2 28.2,68.1 21.3,100.3 -6.2,28.8 -26,71.4 -61.9,68.2 -6.4,-0.6 -19.1,-3.8 -22.7,-10 v 0 z m 20.5,-45.9 c -3.2,-11.6 11.5,-19.5 14.8,-28.4 1.9,-5.2 -0.1,-9.6 -2.2,-14 -4.9,-2.6 -9,-1.1 -10.8,4 -3.2,8.9 -6.5,14.9 -12.6,22.1 -3.3,-13.7 -1.4,-29.1 6.6,-40.9 4.3,-6.3 12.9,-9.4 19.4,-6.9 20.5,7.8 14.2,42.7 5.3,56.4 -4.7,7.3 -12.7,7.6 -20.5,7.6 z m 3.4,-25.8 c 0.5,0.7 0.5,1.4 0.2,2 -9.4,21.3 -18.7,42.6 -28.2,64 -0.9,-0.4 -1.4,-0.4 -1.7,-0.7 -3.3,-3.9 -5.6,-8.5 -7.8,-13.1 -0.9,-1.8 0.1,-3.6 1.2,-5.1 l 32.8,-43.7 c 0.9,-1.3 2,-2.6 3.4,-3.4 v 0 z"
     fill="#a5b6d8"
     id="path5" />
  <path
     d="m 188.7,922.8 c -6.1,11.9 -4.4,25.1 -6,38 -9.7,-2.4 -16.7,-21.7 -18.6,-30 1.7,-9.9 6.9,-17.2 12.9,-24.9 2.8,-3.6 3.7,-7.2 1.9,-11.4 -0.7,-1.6 -0.6,-3.6 -2,-4.9 -8.7,1.5 -13.9,8.2 -19.9,14 -6.7,-7 -5.2,-33.4 0.2,-41.1 8.4,-1.5 15.8,1 22.6,5.8 5.3,-5.2 5.6,-10.3 0.9,-15.7 -3.6,-4.1 -14.7,-8.9 -16.7,-13.1 -1.6,-6.3 10.2,-27.5 17.3,-27.2 7.8,11.5 12.4,24.5 15,38.1 2.7,1.1 5.1,2.1 8.2,1.5 1.6,-15.5 -1.9,-30.3 -6.8,-44.8 0.5,-0.5 0.8,-0.9 1,-0.9 8.6,0.6 16.8,2.3 23.4,8.6 14.9,14.2 -11.5,41.7 0.4,58.4 10.7,-10.3 10.5,-23.1 18.6,-34 8,10.3 15,31 13.7,44.1 -6.9,8.3 -12.4,13 -28.9,14.2 0.5,3.7 -1.8,7.2 -0.8,11.5 8.8,9.4 18.5,7.9 30.1,7.2 1.6,8.2 -6.7,33.6 -12.9,39.7 -12.6,-5.7 -19.1,-17.9 -26.1,-29.1 -2.5,1.9 -4.6,3.7 -6.4,6.1 1.7,12.9 18,29.3 15.9,40.7 -5.5,2.6 -11.4,4.3 -17.7,3.4 -6.2,-0.9 -8.7,-4.3 -10.2,-10.9 -3.3,-14.7 3.2,-32.8 -9.2,-43.3 z m 118.5,22.1 V 881.1 L 375,892 v 67.4 z m -0.1,-139.6 67.9,7.1 v 66.8 l -67.9,-9.9 z m 67.7,165.5 v 66.8 L 307.2,1019 V 955.4 Z M 54.3,939.1 v -28.9 l 13.7,2 16.5,-16.6 0.7,67.6 -16.3,-20.9 z"
     fill="#a5b6d9"
     id="path6" />
  <path
     d="m 89.1,915.5 c 1.4,-0.6 2.3,-0.5 3.4,-0.2 2.8,6.5 3.9,13.4 3.6,20.5 -0.1,2.7 -1.1,5.1 -1.7,7.6 -0.5,1.9 -1.8,3 -3.4,3.9 -1.3,-1.3 -0.9,-2.5 -0.6,-3.8 0.8,-3.7 1.6,-7.3 1.7,-11.1 0.2,-5.8 -1.6,-11.2 -2.9,-16.9 v 0 0 z m 7,42.4 c -0.3,-3.3 0.9,-6.2 1.6,-9.1 1,-4.4 2.5,-8.8 3.1,-13.2 0.8,-5.6 -1,-11 -2.4,-16.4 -0.7,-2.5 -1.5,-5 -2.2,-7.5 -0.4,-1.6 -0.7,-3.1 0.2,-4.5 1.3,-0.1 1.8,0.6 2.1,1.3 2.1,4.3 3.6,8.6 4.5,13.3 1,5.5 0.5,10.9 0.9,16.3 0.3,3.5 -0.8,6.9 -1.3,10.2 -0.6,3.8 -2.6,7.4 -6.6,9.6 v 0 z m 7.6,10.4 c -1.9,-3.7 -1.4,-6.5 -0.1,-9.8 3.1,-8.1 5.9,-16.4 5.3,-25.2 -0.5,-7.7 -1.8,-15.2 -4.6,-22.4 -1.2,-3 -2.3,-6.1 -3.3,-9 0.8,-1.2 1.7,-2 3.4,-1.6 1.8,4.1 3.9,8.3 5.1,12.8 5,19 5,37.4 -5.7,55.3 v 0 z"
     fill="#a5b6d9"
     id="path7" />
  <path
     d="m 598.7,1048.2 -70.3,8.4 -0.2,-378.8 70.5,-3.8 z m 89.8,-514 c -11,50.3 -65.8,45.6 -78.3,2.8 l -92.4,3.1 -0.2,-67.9 89.4,-3.3 c 22.8,-54 64.5,-46.2 81.8,0.2 l 66.2,0.4 1.6,61.8 z M 516.1,297.1 v -24 l 241.7,7.5 0.1,19.4 z"
     fill="#a5b6d9"
     id="path8" />
  <path
     d="m 52.3,828.6 62.6,9.7 -19.2,-43.4 -8.2,15 -13.4,-29.3 -21.8,48.1 z m 64.1,-39.5 c 0,4.4 -3.5,7.9 -7.9,7.9 -4.4,0 -7.9,-3.5 -7.9,-7.9 0,-4.4 3.5,-7.9 7.9,-7.9 4.4,0 7.9,3.5 7.9,7.9 z"
     fill="#a5b6d9"
     id="path9" />
  <ellipse
     cx="649.40002"
     cy="502.89999"
     rx="31"
     ry="51.799999"
     fill="#365798"
     id="ellipse9" />
  <path
     d="m 177.7,628.2 c -1.8,3 -1.6,6.7 0.4,9.3 l -26.3,40 6.6,-0.1 25,-36.7 c 3.2,0.6 6.6,-0.9 8.5,-3.8 2.4,-3.9 1.2,-9 -2.7,-11.4 -3.9,-2.4 -9,-1.2 -11.5,2.7 z m -110.8,29.7 -9.7,12.9 4.6,4.3 7.9,-11 7.1,0.3 c 0.4,0.7 0.9,1.4 1.5,2 3.3,3.3 8.6,3.3 11.8,0 3.3,-3.3 3.3,-8.6 0,-11.8 -3.3,-3.3 -8.6,-3.3 -11.8,0 -1,1 -1.7,2.3 -2.1,3.6 z M 87,589.2 c -4.4,0 -8,3.6 -8,8 0,4.4 3.6,8 8,8 3.7,0 6.8,-2.5 7.7,-6 l 44.5,1.3 17.4,21.5 c -0.2,0.8 -0.4,1.6 -0.4,2.4 0,4.6 3.8,8.4 8.4,8.4 4.6,0 8.4,-3.8 8.4,-8.4 0,-4.6 -3.8,-8.4 -8.4,-8.4 -1.5,0 -2.9,0.4 -4.1,1.1 l -18.9,-22.9 -48,-1.3 c -1.4,-2.2 -3.9,-3.7 -6.8,-3.7 z m 13.5,27 c -4.6,0.1 -8.3,4 -8.1,8.6 0.1,4.6 4,8.3 8.6,8.1 3.3,-0.1 6,-2.1 7.3,-4.9 l 22.2,-0.5 c 1.4,2.9 4.4,4.8 7.8,4.7 4.6,-0.1 8.3,-4 8.1,-8.6 -0.1,-4.6 -4,-8.3 -8.6,-8.1 -3.6,0.1 -6.6,2.5 -7.7,5.7 l -21.5,0.5 c -1.2,-3.3 -4.4,-5.7 -8.1,-5.6 z m -26,16.7 c 0,4.4 -3.6,8 -8,8 -4.4,0 -8,-3.6 -8,-8 0,-4.4 3.6,-8 8,-8 4.4,0 8,3.6 8,8 z M 87.6,477.6 c -3.5,0.2 -6.4,2.5 -7.5,5.6 l -22.6,1 0.3,6.2 22.6,-1 c 1.4,3 4.4,5 7.9,4.9 4.6,-0.2 8.1,-4.1 7.9,-8.7 -0.2,-4.6 -4.1,-8.2 -8.7,-8 z m 56.3,20 c -4.6,0.1 -8.3,4 -8.1,8.6 0.1,4.6 4,8.3 8.6,8.1 3.3,-0.1 6,-2.1 7.3,-4.9 l 25.3,-0.7 c 1.4,2.9 4.4,4.8 7.8,4.7 4.6,-0.1 8.3,-4 8.1,-8.6 -0.1,-4.6 -4,-8.3 -8.6,-8.1 -3.6,0.1 -6.6,2.5 -7.7,5.7 l -24.6,0.7 c -1.2,-3.3 -4.4,-5.7 -8.1,-5.6 z m -44.4,-30.4 -4.1,4.7 19.8,17.1 80.9,-3 -0.5,-6.2 -78.3,2.8 z m -41.6,51.7 -0.2,-6 68.2,-4 71.4,103.9 -5.3,3.3 L 121.9,515 Z m 132.6,25.4 c 2.3,-2.6 2.6,-6.3 1.1,-9.3 l 6.6,-9.5 0.4,-9 -11.7,14.4 c -3.1,-1.1 -6.7,-0.2 -9,2.4 -3,3.5 -2.7,8.7 0.8,11.7 3.5,3 8.7,2.7 11.8,-0.8 z m -32.3,0.4 c 2,2.9 5.5,4.1 8.7,3.3 l 30.7,44.3 -0.1,-9.8 -25.5,-38 c 1.8,-2.8 1.8,-6.4 -0.2,-9.3 -2.6,-3.8 -7.8,-4.7 -11.6,-2 -3.8,2.6 -4.7,7.8 -2.1,11.6 z m -34.8,-9.6 c -3.5,0.2 -6.4,2.5 -7.5,5.6 l -57.2,2.9 0.3,6.2 57.2,-2.9 c 1.4,3 4.4,5 7.9,4.9 4.6,-0.2 8.1,-4.1 7.9,-8.7 -0.2,-4.6 -4.1,-8.2 -8.7,-8 z m 17.5,33 -81.3,2 0.2,6.3 78.7,-2 17.5,22.3 c -0.2,0.8 -0.4,1.6 -0.4,2.4 0,4.6 3.8,8.4 8.4,8.4 4.6,0 8.4,-3.8 8.4,-8.4 0,-4.6 -3.8,-8.4 -8.4,-8.4 -1.5,0 -2.9,0.4 -4.1,1.1 z m 38.3,105.5 c 1.2,2.6 5,0.2 5.7,3.6 -1,4.1 -8.9,0.5 -11.6,0.9 -1.4,-4.3 8.4,-15.3 10.9,-18.8 2.8,-1.4 9.4,0 12.6,0 0.3,2.8 0.5,5.3 -1.5,7.8 -3.4,0.1 -6.7,-1.4 -10.1,-1.7 -2,2.7 -4,5.5 -6,8.2 z M 67.3,606 h -8.1 v -6.7 c 6.2,0 9.7,-1.6 13.2,3.9 6.6,10.3 12.8,20.9 19.1,31.4 3.1,5.2 6.3,10.4 9.5,15.5 4.6,7.4 5.8,8 14.6,8.6 6.3,0.4 12.7,0.4 19.1,0.4 6.6,0 6.4,-5.5 12.7,-4.9 5.4,5.1 5.4,11.7 0,16.8 -6,0.4 -5.3,-5.8 -9.8,-5.8 h -19.2 c -9.5,0 -12.4,2.1 -17.3,-5.6 C 89.9,641.7 78.7,623.9 67.5,606 Z"
     fill="#a5b6d9"
     id="path12" />
  <path
     d="m 297.59918,233.57187 c 0,2.99091 -1.54644,5.5145 -3.50923,5.5145 -1.90331,0 -3.50923,-2.43012 -3.50923,-5.5145 0,-2.99092 1.54644,-5.51451 3.50923,-5.51451 1.90331,0 3.50923,2.43012 3.50923,5.51451 z m 8.56489,-12.80486 c 0,2.99091 -1.54644,5.5145 -3.50922,5.5145 -1.90331,0 -3.50923,-2.43012 -3.50923,-5.5145 0,-2.99092 1.54644,-5.5145 3.50923,-5.5145 1.90331,0 3.50922,2.43011 3.50922,5.5145 z m 13.68005,0 c 0,2.99091 -1.54644,5.5145 -3.50923,5.5145 -1.90331,0 -3.50923,-2.43012 -3.50923,-5.5145 0,-2.99092 1.54644,-5.5145 3.50923,-5.5145 1.90331,0 3.50923,2.43011 3.50923,5.5145 z m -7.67272,43.55521 c 0,2.99092 -1.54644,5.5145 -3.50923,5.5145 -1.90331,0 -3.50923,-2.43012 -3.50923,-5.5145 0,-2.99091 1.54644,-5.5145 3.50923,-5.5145 1.90331,0 3.50923,2.43012 3.50923,5.5145 z m 8.74333,-10.7486 c 0,2.99091 -1.54644,5.5145 -3.50923,5.5145 -1.90331,0 -3.50923,-2.43012 -3.50923,-5.5145 0,-2.99092 1.54644,-5.5145 3.50923,-5.5145 1.90331,0 3.50923,2.43011 3.50923,5.5145 z m 4.4014,-17.1043 c 0,2.99091 -1.54644,5.5145 -3.50923,5.5145 -1.90331,0 -3.50922,-2.43012 -3.50922,-5.5145 0,-2.99092 1.54644,-5.51451 3.50922,-5.51451 1.90331,0 3.50923,2.43012 3.50923,5.51451 z"
     fill="#365798"
     id="path13"
     style="stroke-width:0.745602" />
</svg>
